<?xml version="1.0" standalone="no"?>
<!DOCTYPE svg PUBLIC "-//W3C//DTD SVG 20010904//EN"
 "http://www.w3.org/TR/2001/REC-SVG-20010904/DTD/svg10.dtd">
<svg version="1.0" xmlns="http://www.w3.org/2000/svg"
 width="445.000000pt" height="445.000000pt" viewBox="0 0 445.000000 445.000000"
 preserveAspectRatio="xMidYMid meet">

<g transform="translate(0.000000,445.000000) scale(0.100000,-0.100000)"
fill="#000000" stroke="none">
<path d="M2286 3778 c-3 -7 -7 -42 -10 -78 -3 -36 -15 -111 -26 -168 -33 -172
-25 -265 24 -246 14 5 16 27 17 153 1 105 4 135 10 106 4 -22 8 -69 9 -105 l1
-65 34 37 c82 89 79 232 -8 351 -22 29 -45 35 -51 15z"/>
<path d="M2197 3523 c-24 -77 -27 -109 -12 -129 7 -11 15 -17 18 -14 5 6 17
190 12 190 -2 0 -10 -21 -18 -47z"/>
<path d="M1380 3486 c0 -20 5 -26 21 -26 15 0 20 5 17 22 -5 34 -38 37 -38 4z"/>
<path d="M3080 3485 c0 -18 5 -25 20 -25 15 0 20 7 20 25 0 18 -5 25 -20 25
-15 0 -20 -7 -20 -25z"/>
<path d="M2610 3320 c-25 -16 -73 -39 -108 -51 -43 -14 -79 -36 -115 -69 -29
-26 -50 -50 -47 -53 3 -3 28 12 55 33 49 38 155 87 155 72 0 -5 -35 -29 -78
-55 -43 -25 -99 -65 -125 -87 l-47 -42 0 60 c0 42 -5 65 -16 76 -18 19 -20 19
-45 6 -17 -9 -19 -22 -19 -106 l0 -96 -47 52 c-46 51 -193 159 -193 142 0 -5
7 -15 16 -23 8 -7 22 -25 30 -40 l14 -28 -32 4 c-17 2 -45 14 -61 25 -25 19
-27 20 -19 3 28 -51 87 -83 156 -83 51 0 74 -21 107 -95 21 -45 23 -70 27
-250 l4 -199 -60 61 c-49 49 -83 72 -185 122 -68 33 -128 61 -133 61 -4 0 7
-15 25 -34 27 -28 32 -40 27 -61 -6 -23 -11 -26 -34 -20 -15 3 -53 27 -86 51
-57 45 -58 45 -40 14 11 -18 41 -52 68 -76 62 -57 133 -79 221 -69 l62 6 46
-50 c58 -65 76 -121 83 -251 l5 -105 -23 30 c-62 81 -174 157 -277 190 l-24 7
22 -23 c19 -21 22 -26 21 -46 -2 -27 -99 21 -138 67 -8 9 -7 3 3 -17 39 -82
129 -133 236 -133 l57 0 46 -61 c25 -34 46 -64 46 -67 0 -4 4 -13 9 -21 8 -12
17 -11 55 10 28 14 46 31 46 41 0 30 32 101 67 151 l35 47 72 0 c40 0 93 7
119 16 95 32 168 126 210 270 l15 52 -81 -43 c-45 -23 -118 -55 -162 -69 -128
-42 -190 -88 -210 -156 -7 -21 -1 -19 41 19 49 44 162 104 219 116 29 6 28 5
-10 -20 -22 -14 -71 -42 -108 -62 -75 -40 -160 -111 -189 -158 -18 -29 -18
-24 -18 313 0 286 3 349 15 379 24 58 43 73 89 73 128 0 206 72 240 220 8 33
14 60 13 59 -1 0 -22 -13 -47 -29z m-110 -165 c-13 -14 -31 -25 -39 -25 -11 0
-5 11 17 31 39 35 56 31 22 -6z"/>
<path d="M2066 3245 c-11 -12 -20 -12 -46 -4 -45 16 -47 5 -3 -22 21 -13 64
-48 96 -78 57 -54 57 -54 57 -26 0 39 -36 110 -65 129 -21 14 -26 14 -39 1z"/>
<path d="M3088 3210 c-3 -8 13 -51 35 -95 24 -49 35 -81 28 -83 -15 -5 -14
-23 2 -19 7 1 11 -6 9 -19 -1 -11 11 -62 28 -111 16 -50 30 -109 30 -131 0
-60 41 -93 70 -57 17 20 7 114 -21 209 -39 132 -166 347 -181 306z"/>
<path d="M3556 2954 c-36 -49 -66 -92 -66 -96 0 -28 100 11 124 47 20 31 31
98 19 120 -8 14 -21 3 -77 -71z"/>
<path d="M955 2995 c4 -11 10 -31 12 -45 4 -25 4 -25 -14 -5 -10 11 -26 26
-36 34 -16 13 -16 11 -2 -29 20 -57 19 -63 -7 -49 -22 10 -21 10 3 -15 14 -15
41 -29 61 -32 33 -6 37 -4 40 17 6 41 -10 91 -38 118 -22 22 -26 23 -19 6z"/>
<path d="M2730 2908 c-14 -5 -63 -16 -109 -24 -94 -17 -113 -25 -153 -62 -42
-39 -34 -46 13 -13 40 30 134 58 160 49 8 -3 -6 -11 -31 -18 -65 -17 -157 -69
-187 -104 -36 -42 -75 -130 -67 -150 10 -26 26 -14 41 29 7 22 24 54 36 72 21
32 25 33 89 33 79 0 104 8 153 51 35 31 90 122 83 139 -2 4 -14 3 -28 -2z"/>
<path d="M1985 2830 c-3 -5 -3 -10 0 -10 4 0 0 -7 -9 -15 -20 -20 -62 -19
-131 5 -33 11 -64 19 -70 17 -11 -5 15 -17 153 -73 52 -21 125 -59 163 -86 79
-55 88 -47 43 38 -30 57 -68 100 -106 120 -32 17 -35 17 -43 4z"/>
<path d="M1265 2779 c-4 -11 -4 -23 -2 -26 3 -3 -6 -15 -20 -27 -34 -29 -20
-60 15 -37 8 5 16 31 18 60 5 53 0 66 -11 30z"/>
<path d="M3778 2751 c-20 -20 -66 -52 -102 -71 -36 -19 -66 -38 -66 -42 0 -25
129 -26 173 -1 36 21 97 105 97 134 0 34 -59 22 -102 -20z"/>
<path d="M793 2752 c15 -15 27 -31 27 -35 0 -3 -21 0 -47 8 -26 8 -49 12 -52
10 -7 -8 40 -54 62 -61 13 -4 16 -9 9 -16 -14 -14 -65 -1 -97 23 -14 11 -25
16 -25 10 0 -18 77 -68 115 -75 49 -9 115 10 115 33 0 27 -41 82 -79 108 -47
31 -60 29 -28 -5z"/>
<path d="M1340 2667 c-102 -109 -106 -116 -89 -146 21 -36 44 -37 79 -3 16 16
32 27 35 24 3 -3 5 -31 5 -63 0 -89 26 -206 64 -286 19 -40 37 -73 39 -73 6 0
81 31 85 35 2 2 -5 20 -16 42 -34 67 -72 203 -79 282 l-6 76 37 -32 c20 -18
41 -33 46 -33 13 0 50 37 50 50 0 17 -160 190 -176 190 -9 0 -42 -28 -74 -63z"/>
<path d="M2996 2645 c-80 -90 -94 -125 -57 -145 28 -15 36 -13 72 17 l32 27
-5 -75 c-7 -84 -54 -237 -92 -297 l-24 -39 -69 15 c-142 30 -362 -8 -535 -93
l-92 -45 -91 35 c-147 56 -211 67 -365 63 -120 -4 -144 -8 -216 -35 -45 -17
-106 -46 -136 -66 -92 -59 -213 -197 -206 -235 7 -35 37 -21 114 55 90 90 167
134 280 163 104 27 251 27 362 0 74 -18 142 -44 142 -54 0 -3 -28 -27 -63 -54
l-63 -50 -79 23 c-44 12 -118 26 -165 29 l-85 7 50 -45 c52 -48 137 -97 244
-140 l63 -25 52 56 c110 122 321 247 491 294 98 27 250 29 341 5 34 -9 66 -16
70 -16 15 0 82 112 113 191 31 77 61 221 61 291 l0 40 31 -26 c34 -29 42 -31
70 -16 36 20 23 55 -52 139 -65 73 -86 91 -109 91 -5 0 -43 -38 -84 -85z"/>
<path d="M805 2470 c4 -6 -6 -10 -22 -10 -15 0 -34 -4 -42 -9 -11 -7 -8 -10
10 -16 l23 -8 -28 -14 c-16 -8 -38 -12 -50 -9 -21 5 -21 5 -1 -10 45 -34 95
-30 142 10 22 20 26 28 18 42 -6 9 -21 21 -33 25 -15 6 -21 5 -17 -1z"/>
<path d="M3750 2472 c0 -5 -18 -12 -40 -16 -45 -7 -50 -17 -17 -35 l22 -12
-22 5 c-36 7 -27 -13 13 -30 28 -12 43 -13 69 -4 29 10 74 46 64 53 -2 1 -13
10 -24 18 -25 21 -65 33 -65 21z"/>
<path d="M1956 2454 c-5 -13 -16 -15 -54 -11 -26 2 -56 8 -67 12 -18 7 -19 7
-4 -9 9 -9 42 -24 74 -32 74 -19 163 -64 210 -105 19 -17 35 -27 35 -21 0 19
-32 88 -57 120 -41 55 -123 82 -137 46z"/>
<path d="M3251 2363 c-63 -327 -289 -606 -603 -744 -278 -122 -652 -99 -913
58 -70 42 -158 106 -200 145 -30 28 -55 33 -62 11 -11 -31 157 -172 288 -242
160 -86 305 -121 505 -121 251 0 431 60 637 212 126 93 265 270 327 416 61
143 88 323 49 330 -12 2 -18 -13 -28 -65z"/>
<path d="M935 2307 c-74 -53 -97 -97 -50 -97 40 0 73 21 90 55 30 65 14 82
-40 42z"/>
<path d="M3581 2314 c11 -13 9 -14 -14 -9 -33 9 -34 2 -5 -25 28 -25 20 -33
-15 -15 -25 13 -26 13 -18 -4 16 -29 34 -40 81 -47 l43 -7 -6 38 c-7 40 -41
85 -65 85 -12 0 -12 -3 -1 -16z"/>
<path d="M1230 2242 c0 -25 78 -212 88 -212 2 0 18 10 37 23 31 21 33 26 21
43 -7 10 -23 45 -36 76 -13 31 -27 55 -32 52 -4 -3 -8 0 -8 6 0 7 -7 9 -16 6
-8 -3 -24 -1 -35 4 -11 6 -19 7 -19 2z"/>
<path d="M1061 2066 c-13 -14 -32 -28 -43 -32 -10 -3 -18 -15 -18 -26 0 -17 4
-19 28 -13 40 9 64 37 60 70 l-3 27 -24 -26z"/>
<path d="M3434 2063 c4 -11 2 -14 -9 -9 -21 8 -19 -17 3 -36 9 -8 29 -18 45
-22 25 -6 27 -4 27 28 0 37 -13 52 -48 54 -18 1 -22 -3 -18 -15z"/>
<path d="M2682 1945 c-18 -8 -31 -19 -28 -24 4 -5 1 -13 -5 -16 -5 -4 -8 -13
-6 -19 3 -8 -14 -19 -46 -31 -57 -19 -175 -80 -234 -121 -56 -39 -75 -43 -137
-35 -47 6 -59 5 -72 -10 -23 -26 -6 -30 119 -31 116 0 191 13 297 54 107 41
235 123 303 196 26 27 27 30 10 37 -39 15 -167 16 -201 0z"/>
<path d="M2869 1783 c-13 -16 -12 -17 4 -4 9 7 17 15 17 17 0 8 -8 3 -21 -13z"/>
<path d="M3345 1780 c-8 -14 3 -30 21 -30 8 0 14 9 14 20 0 21 -24 28 -35 10z"/>
<path d="M2418 1573 c7 -3 16 -2 19 1 4 3 -2 6 -13 5 -11 0 -14 -3 -6 -6z"/>
<path d="M2158 1563 c7 -3 16 -2 19 1 4 3 -2 6 -13 5 -11 0 -14 -3 -6 -6z"/>
<path d="M2348 1563 c6 -2 18 -2 25 0 6 3 1 5 -13 5 -14 0 -19 -2 -12 -5z"/>
<path d="M574 1316 c-16 -7 -47 -33 -67 -56 -92 -108 -61 -257 66 -322 60 -30
152 -22 209 17 23 17 43 35 45 40 1 6 -13 21 -32 34 -34 23 -36 23 -54 7 -28
-26 -91 -31 -129 -12 -76 39 -81 150 -10 200 31 22 104 20 136 -3 27 -19 27
-19 59 8 l33 27 -28 27 c-15 14 -40 31 -55 36 -39 15 -136 13 -173 -3z"/>
<path d="M935 1318 c-3 -7 -4 -99 -3 -203 l3 -190 42 -3 c49 -4 59 13 48 84
l-6 44 38 0 c35 0 41 -5 73 -52 19 -28 41 -57 48 -65 13 -13 93 -18 105 -7 3
4 -14 35 -38 70 -25 35 -45 66 -45 69 0 3 15 18 33 34 29 26 32 35 32 84 0 63
-22 102 -71 127 -41 21 -252 28 -259 8z m225 -98 c46 -46 14 -80 -76 -80 l-64
0 0 43 c0 24 3 47 7 50 3 4 30 7 60 7 40 0 58 -5 73 -20z"/>
<path d="M1395 1317 c-3 -7 -4 -98 -3 -202 l3 -190 150 0 150 0 0 40 0 40
-107 3 -108 3 0 34 0 34 88 3 87 3 0 35 0 35 -65 3 c-102 4 -110 7 -110 47 l0
35 106 0 105 0 -3 43 -3 42 -143 3 c-110 2 -144 0 -147 -11z"/>
<path d="M1905 1311 c-89 -40 -140 -147 -116 -239 36 -133 210 -196 323 -116
23 16 43 34 45 39 2 6 -11 21 -28 34 l-31 23 -38 -21 c-47 -26 -86 -27 -128
-1 -40 24 -55 62 -48 115 10 83 105 122 181 75 l33 -20 31 26 c31 26 31 27 14
47 -48 54 -163 73 -238 38z"/>
<path d="M2275 1317 c-3 -7 -4 -98 -3 -202 l3 -190 150 0 150 0 3 43 3 42
-105 0 -106 0 0 35 0 34 88 3 87 3 3 28 c6 48 -11 57 -105 57 l-84 0 3 33 3
32 108 3 108 3 -3 42 -3 42 -148 3 c-114 2 -149 0 -152 -11z"/>
<path d="M2704 1317 c-2 -7 -3 -98 -2 -202 l3 -190 42 -3 c51 -4 52 -1 56 135
l2 93 99 -116 c90 -106 101 -115 130 -112 l31 3 3 203 2 203 -42 -3 -43 -3 -3
-112 c-1 -62 -6 -113 -10 -113 -5 0 -40 39 -79 88 -107 132 -118 142 -153 142
-17 0 -33 -6 -36 -13z"/>
<path d="M3204 1317 c-2 -7 -3 -98 -2 -202 l3 -190 74 -3 c191 -8 296 66 295
208 -1 31 -8 69 -17 87 -23 44 -82 89 -133 102 -62 16 -213 14 -220 -2z m209
-91 c42 -17 67 -56 67 -103 0 -71 -54 -113 -145 -113 l-45 0 0 115 0 115 45 0
c25 0 60 -6 78 -14z"/>
<path d="M3785 1316 c-42 -18 -102 -88 -114 -133 -15 -55 -13 -92 8 -138 37
-81 106 -125 194 -125 142 0 243 126 207 259 -13 50 -72 119 -117 138 -41 17
-139 16 -178 -1z m171 -110 c29 -29 34 -41 34 -81 0 -38 -5 -52 -29 -75 -78
-79 -201 -32 -201 77 0 38 5 50 34 79 29 29 41 34 81 34 40 0 52 -5 81 -34z"/>
<path d="M2339 731 c-36 -36 -37 -73 -4 -106 26 -26 57 -31 99 -15 21 8 26 16
26 46 0 33 -2 36 -22 30 -13 -3 -29 -6 -35 -6 -7 0 -13 -4 -13 -10 0 -5 9 -10
20 -10 11 0 20 -4 20 -9 0 -14 -37 -23 -60 -16 -11 3 -23 17 -26 31 -11 43 43
83 72 54 8 -8 15 -6 24 4 10 13 8 17 -15 26 -41 15 -54 12 -86 -19z"/>
<path d="M2600 680 c0 -63 3 -80 14 -80 11 0 16 14 18 48 l3 47 35 -47 c46
-62 70 -63 70 -5 0 58 -11 117 -21 117 -5 0 -9 -20 -9 -45 0 -25 -4 -45 -9
-45 -5 0 -24 20 -42 45 -50 65 -59 60 -59 -35z"/>
<path d="M2878 754 c-5 -4 -8 -40 -8 -81 0 -58 3 -73 15 -73 11 0 15 11 15 40
0 22 4 40 9 40 5 0 22 -18 38 -40 37 -53 57 -49 61 14 4 57 -4 96 -18 96 -6 0
-10 -18 -10 -40 0 -22 -3 -40 -6 -40 -3 0 -24 21 -47 46 -23 25 -45 42 -49 38z"/>
<path d="M1540 675 c0 -60 3 -75 15 -75 8 0 15 9 15 20 0 13 7 20 20 20 10 0
24 -9 30 -20 6 -11 17 -20 25 -20 17 0 19 9 6 29 -6 9 -4 19 5 28 17 18 18 65
2 81 -7 7 -36 12 -65 12 l-53 0 0 -75z m95 25 c0 -20 -6 -26 -28 -28 -18 -2
-29 2 -33 12 -11 28 4 48 33 44 22 -2 28 -8 28 -28z"/>
<path d="M1800 675 l0 -76 62 3 c76 4 92 25 22 30 -55 3 -72 25 -23 30 44 4
49 26 7 30 -22 2 -34 9 -36 21 -3 14 4 17 42 17 25 0 46 5 46 10 0 6 -27 10
-60 10 l-60 0 0 -75z"/>
<path d="M2060 675 l0 -76 57 3 c71 4 88 28 19 28 -54 0 -65 24 -16 34 17 3
30 10 30 16 0 5 -13 10 -30 10 -23 0 -30 4 -30 20 0 17 7 20 40 20 22 0 40 5
40 10 0 6 -25 10 -55 10 l-55 0 0 -75z"/>
<path d="M1005 690 c-3 -6 0 -12 7 -15 25 -10 378 0 378 10 0 14 -376 19 -385
5z"/>
<path d="M3153 688 c3 -10 50 -13 192 -13 142 0 189 3 193 13 3 9 -40 12 -193
12 -153 0 -196 -3 -192 -12z"/>
</g>
</svg>
